<?xml version="1.0" encoding="UTF-8"?>
<svg version="1.1" xmlns="http://www.w3.org/2000/svg" width="960" height="640">
<path d="M0 0 C316.8 0 633.6 0 960 0 C960 211.2 960 422.4 960 640 C643.2 640 326.4 640 0 640 C0 428.8 0 217.6 0 0 Z " fill="#D31624" transform="translate(0,0)"/>
<path d="M0 0 C3.29355586 1.64677793 4.128782 5.27834847 5.625 8.5 C10.43505925 18.42232693 16.21067563 27.1034451 27 31 C29.83756327 31.6884245 32.69825856 32.24706235 35.5625 32.8125 C51.84294527 36.08909932 64.25226602 44.69217801 77 55 C77.59135742 55.47518066 78.18271484 55.95036133 78.79199219 56.43994141 C80.21593804 57.60101136 81.61121305 58.79709684 83 60 C83 60.33 83 60.66 83 61 C76.4 61 69.8 61 63 61 C66.31158101 65.30654977 66.31158101 65.30654977 70.1796875 68.4296875 C70.77257568 68.82945801 71.36546387 69.22922852 71.97631836 69.64111328 C72.6028833 70.0482959 73.22944824 70.45547852 73.875 70.875 C74.5254126 71.30409668 75.1758252 71.73319336 75.84594727 72.17529297 C82.29816996 76.34609683 89.03880664 79.76073899 96 83 C96 83.33 96 83.66 96 84 C75.92251546 84.75984658 75.92251546 84.75984658 68.3203125 80.890625 C63.75704337 79.13906715 58.80836249 79.70257552 54 80 C54 81.65 54 83.3 54 85 C54.85980469 85.44988281 55.71960938 85.89976562 56.60546875 86.36328125 C66.63530514 91.76363234 74.94255169 98.27373493 83.21484375 106.09375 C93.55430003 115.7783079 106.29890013 122.76899248 118.5546875 129.73974609 C119.225 130.12469238 119.8953125 130.50963867 120.5859375 130.90625 C121.1742334 131.23947266 121.7625293 131.57269531 122.36865234 131.91601562 C124.15073311 133.10015788 125.53784451 134.44406679 127 136 C126.67 136.99 126.34 137.98 126 139 C121.30118975 139.18072347 117.11973693 138.89617847 112.5 138 C105.00243686 136.63505902 97.58750975 136.82668125 90 137 C90.25849956 138.96415164 90.25849956 138.96415164 91 141 C99.21211301 144.90811311 108.52799396 146.64604859 117.29101562 148.95117188 C124.18927628 150.80715802 130.57222904 152.8735434 137 156 C137 157.32 137 158.64 137 160 C130.07902753 162.48657694 123.04236835 162.60183226 115.75 163 C107.02149283 163.4824354 98.56083818 164.17534127 90 166 C90 167.32 90 168.64 90 170 C91.34191406 170.03867187 91.34191406 170.03867187 92.7109375 170.078125 C106.87753749 170.74265634 114.53750291 174.50092204 124.390625 184.40234375 C132.03420715 192.01159844 140.00170754 199.00763209 148.63061523 205.47119141 C150.12109392 206.60404782 151.56561951 207.79690276 153 209 C153 209.66 153 210.32 153 211 C142.79543877 213.16075229 136.29722234 212.39637583 127.47900391 206.84594727 C122.73630376 203.96346948 119.56118784 203.4092303 114 204 C111.47256505 204.98657173 111.47256505 204.98657173 109.5 206.5 C108.49453125 207.19609375 108.49453125 207.19609375 107.46875 207.90625 C106.9840625 208.2671875 106.499375 208.628125 106 209 C106.41991038 213.89895447 108.41025368 215.78095423 112 219 C114.86984293 220.80782429 114.86984293 220.80782429 118.015625 222.34765625 C119.17682861 222.94707031 120.33803223 223.54648437 121.53442383 224.1640625 C122.14170319 224.47375977 122.74898254 224.78345703 123.37466431 225.10253906 C132.486708 229.76688051 141.45751842 234.55377465 149.8125 240.5 C150.45541992 240.95511963 151.09833984 241.41023926 151.76074219 241.87915039 C163.01614659 250.15775682 163.01614659 250.15775682 165.125 256.25 C165 259 165 259 164.0625 260.875 C160.75694489 262.67803006 157.6162807 262.65047902 154 262 C150.54098663 260.3312196 147.49802766 258.1613596 144.375 255.9375 C129.8195263 245.40562869 129.8195263 245.40562869 112.94677734 240.82641602 C111.7293837 240.80618126 111.7293837 240.80618126 110.48739624 240.78553772 C109.61241486 240.77509933 108.73743347 240.76466095 107.8359375 240.75390625 C105.97265193 240.72094634 104.1093708 240.68773508 102.24609375 240.65429688 C99.31692784 240.60706805 96.38777705 240.5626722 93.45849609 240.52319336 C90.62578065 240.48315074 87.79344082 240.43166572 84.9609375 240.37890625 C84.0981015 240.3704921 83.2352655 240.36207794 82.34628296 240.35340881 C73.97887911 240.18574011 66.90796701 238.74580518 59.4375 234.875 C54.1866943 232.38132682 50.76019541 230.86853304 45 232 C42.30894802 234.17574416 40.54467072 235.91065856 39 239 C38.73963378 243.0814649 38.72870696 247.16505085 38.70483398 251.25415039 C38.68788592 253.2666731 38.64405937 255.27891247 38.59960938 257.29101562 C38.51478915 270.47729855 40.87251692 281.21788187 50 291 C50.6084375 291.66386719 51.216875 292.32773437 51.84375 293.01171875 C56.30767714 297.66774112 61.21613539 301.65297278 66.23828125 305.6875 C76.74087591 314.48175182 76.74087591 314.48175182 79 319 C212.98 319.33 346.96 319.66 485 320 C485 372.8 485 425.6 485 480 C168.2 480 -148.6 480 -475 480 C-475 427.2 -475 374.4 -475 320 C-457.85530762 320.00169189 -457.85530762 320.00169189 -440.36425781 320.00341797 C-403.8225893 320.00281054 -367.28099812 319.97279983 -330.73936315 319.92420971 C-325.06647676 319.91669337 -319.39359006 319.90943794 -313.72070312 319.90234375 C-312.59129998 319.900927 -311.46189684 319.89951025 -310.29826936 319.89805056 C-291.99421973 319.87571217 -273.69022643 319.87452569 -255.38616696 319.88111137 C-236.6143301 319.88739621 -217.84261204 319.87105433 -199.07081103 319.83356392 C-187.48098335 319.81113461 -175.89142594 319.80650311 -164.30158922 319.82440336 C-156.36157806 319.83497844 -148.42178971 319.82364031 -140.48182443 319.79483847 C-135.89594788 319.77885781 -131.31060095 319.77276084 -126.72472763 319.79260826 C-122.52986183 319.81055087 -118.33600056 319.80110558 -114.141224 319.76946117 C-112.6203106 319.76289636 -111.09931316 319.76656251 -109.57845655 319.78125392 C-107.51626503 319.79970791 -105.45757049 319.78152776 -103.3955574 319.75390434 C-102.24880201 319.7531449 -101.10204661 319.75238546 -99.92054105 319.75160301 C-96.71060917 319.24164727 -96.71060917 319.24164727 -94.71250606 316.07669079 C-94.14737906 315.06138283 -93.58225206 314.04607487 -93 313 C-87.84472426 307.31272504 -82.34662943 304.57404991 -75.1875 302.125 C-59.21263212 296.13387791 -47.10865535 284.52056778 -39.9375 268.9375 C-39.2691528 267.30067989 -38.62167532 265.65510962 -38 264 C-37.63648438 263.1646875 -37.27296875 262.329375 -36.8984375 261.46875 C-35.08935444 256.49770436 -35.41145135 251.70025166 -37.125 246.75 C-40.4101278 241.93181257 -45.0540488 237.75321434 -50.9440918 236.62890625 C-58.06327769 236.40025841 -63.47507669 238.991801 -69.8125 242 C-72.030181 243.01146171 -74.24894691 244.02054781 -76.46875 245.02734375 C-77.56703125 245.52991699 -78.6653125 246.03249023 -79.796875 246.55029297 C-103.58874101 257.31828842 -103.58874101 257.31828842 -115 258 C-115.64485352 258.04092773 -116.28970703 258.08185547 -116.95410156 258.12402344 C-131.41122295 258.93127387 -131.41122295 258.93127387 -137 254 C-137 252.68 -137 251.36 -137 250 C-127.55878184 245.7960425 -118.04221573 242.85917095 -108.06640625 240.21484375 C-96.11209115 236.85996723 -86.5011904 230.89366576 -77 223 C-77.18828772 220.55519921 -77.18828772 220.55519921 -78 218 C-81.93017058 215.1805298 -86.36740841 215.38539415 -91 216 C-94.67224267 217.25498002 -97.84674083 219.25199826 -101.08984375 221.35546875 C-109.22140725 226.54020924 -117.97203812 229.73688125 -127 233 C-127.97710937 233.36609375 -128.95421875 233.7321875 -129.9609375 234.109375 C-136.19774963 236.24886395 -142.44390096 236.88961816 -149 236 C-152.67930728 233.90784488 -153.6704934 232.98851981 -155 229 C-153.85724609 228.90525391 -153.85724609 228.90525391 -152.69140625 228.80859375 C-141.53287172 227.48517205 -136.42702205 222.52401978 -128.8125 214.6875 C-119.91475183 205.55312626 -109.4394187 198.94496576 -98.24145508 192.95458984 C-93.61634901 190.59358553 -93.61634901 190.59358553 -90 187 C-89.4765397 182.36363736 -89.401416 180.10507815 -91.625 176 C-93.83607792 173.78331493 -93.83607792 173.78331493 -96.69921875 173.59765625 C-101.06553195 174.12988141 -103.64579897 175.94659181 -107.1875 178.4375 C-113.05888748 182.45217647 -117.64095229 185.06713121 -125 184 C-127.30851561 182.88705248 -128.97952684 181.61637853 -131 180 C-129.88521643 176.65564928 -129.47357106 176.41411244 -126.6875 174.5625 C-122.77072904 171.76480646 -119.50703348 168.52455084 -116.1875 165.0625 C-108.86865711 157.5554616 -101.56897092 152.47802959 -91.34765625 149.7890625 C-83.51156285 147.15530066 -77.61888874 140.23777749 -74 133 C-73.47799382 126.73592579 -74.07857962 123.90177547 -78 119 C-81.73604505 119.46700563 -85.11407536 120.03232135 -88.75 121.0625 C-93.92459447 122.42209933 -101.09708246 123.45145877 -106 121 C-105.70438601 117.77055657 -105.3481809 116.33871579 -102.98828125 114.04296875 C-94.20203015 107.95031288 -85.12596414 102.36425013 -75.4375 97.8125 C-70.78739897 95.36062855 -67.84909819 92.90036261 -65.6875 88.0625 C-62.96644101 83.12428183 -58.9081401 79.97246723 -53.546875 78.1796875 C-50.67425158 77.52176407 -47.95050129 77 -45 77 C-45.66 74.69 -46.32 72.38 -47 70 C-52.94 69.505 -52.94 69.505 -59 69 C-54.5603873 60.1207746 -45.69228209 56.44834805 -37.20703125 52.05664062 C-28.82647215 47.74316211 -28.82647215 47.74316211 -24 40 C-24.90363281 40.30035156 -25.80726563 40.60070312 -26.73828125 40.91015625 C-27.91777344 41.29042969 -29.09726562 41.67070312 -30.3125 42.0625 C-32.07013672 42.63677734 -32.07013672 42.63677734 -33.86328125 43.22265625 C-37 44 -37 44 -40 43 C-33.51600747 35.0775791 -26.17025913 27.87677371 -17.8125 21.9375 C-9.91426839 16.17130637 -4.66954015 8.47238534 0 0 Z " fill="#D31624" transform="translate(475,160)"/>
<path d="M0 0 C159.72 0 319.44 0 484 0 C484 105.6 484 211.2 484 320 C382.47703188 320.40331349 382.47703188 320.40331349 340.11914062 320.48828125 C330.42358228 320.50786022 320.72802554 320.52806511 311.0324707 320.54931641 C309.81727684 320.55195389 308.60208297 320.55459138 307.35006505 320.55730879 C287.72701439 320.6008119 268.10425652 320.67965526 248.48137952 320.77152796 C228.34566335 320.86501605 208.21010055 320.92058201 188.07417625 320.94088495 C175.64725665 320.95461201 163.22116421 320.99797882 150.79449921 321.07916467 C142.27509979 321.13199112 133.7561285 321.14800873 125.23657716 321.13501377 C120.31957272 321.12860302 115.40401435 321.13848411 110.48726654 321.19205475 C105.98394847 321.24076252 101.48304679 321.24315651 96.97961687 321.20898895 C95.35223172 321.20476732 93.72469512 321.21742564 92.09760756 321.24883182 C79.93801937 321.46985574 79.93801937 321.46985574 75.0837363 317.78821254 C72.82626959 315.29578104 70.90620634 312.76473222 69 310 C67.34851947 308.39947679 65.6699287 306.82503209 63.9375 305.3125 C63.1021875 304.57515625 62.266875 303.8378125 61.40625 303.078125 C59.91325446 301.78871976 58.41432534 300.50611017 56.90625 299.234375 C46.80573554 290.65695399 39.28909953 282.36716735 37 269 C36.74356535 264.73149921 36.68761391 260.46561714 36.64990234 256.18994141 C36.63334188 254.81672214 36.60604942 253.44358912 36.56787109 252.07080078 C36.21290182 239.20239279 36.21290182 239.20239279 39.3984375 234.6171875 C42.59844961 231.3979561 43.12466009 231.06646966 47.65234375 230.72265625 C52.26812752 230.78203329 55.54774807 232.29378188 59.5625 234.4375 C60.80904185 235.09119017 62.06035611 235.73586506 63.31640625 236.37109375 C63.85724854 236.65911865 64.39809082 236.94714355 64.95532227 237.24389648 C70.83894274 239.41960665 77.19850163 239.12101708 83.37890625 239.10546875 C85.20639195 239.11893362 87.0338667 239.13395836 88.86132812 239.15039062 C91.70261861 239.17308971 94.54266539 239.18758753 97.3840332 239.17504883 C116.92688657 239.11194685 128.73653916 244.44597952 144.62890625 255.9609375 C150.92634844 260.30281282 155.32528292 262.07278743 163 261 C163.52468914 258.00177635 163.49115931 255.84198739 161.93359375 253.171875 C152.00979022 240.93500449 136.83218199 233.92695343 123.21826172 226.62109375 C107.41560702 218.12341053 107.41560702 218.12341053 104 213 C103.875 210.625 103.875 210.625 105 208 C109.25777707 204.12257026 113.08548179 202.50641258 118.94116211 202.6730957 C122.41401809 203.22451918 125.11105111 205.11989671 128 207 C135.98041906 211.78107572 142.92244877 211.85884847 152 211 C148.49858278 207.40847278 144.85268038 204.08890315 141 200.875 C140.44183594 200.40489502 139.88367188 199.93479004 139.30859375 199.45043945 C136.36265069 196.97036071 133.40451626 194.50559509 130.4375 192.05078125 C129.86128906 191.5707666 129.28507813 191.09075195 128.69140625 190.59619141 C127.59889151 189.68628811 126.50277046 188.78068965 125.40234375 187.88037109 C122.79622281 185.70499329 120.49138159 183.48021613 118.36328125 180.84765625 C112.42578415 173.69321759 105.2537232 172.39022133 96.40893555 171.54394531 C95.73902588 171.48303711 95.06911621 171.42212891 94.37890625 171.359375 C91 171 91 171 89 170 C89 168.68 89 167.36 89 166 C94.77651787 163.45153624 100.42512621 162.89684317 106.68359375 162.53515625 C107.94107422 162.45716797 109.19855469 162.37917969 110.49414062 162.29882812 C113.11892389 162.14152313 115.74392833 161.9878655 118.36914062 161.83789062 C120.25729492 161.71897461 120.25729492 161.71897461 122.18359375 161.59765625 C123.89373657 161.49723022 123.89373657 161.49723022 125.63842773 161.39477539 C129.30555036 160.96411686 132.48301738 160.10137896 136 159 C135.67 158.01 135.34 157.02 135 156 C132.44904369 154.89746804 130.0172057 154.0135393 127.375 153.1875 C126.58899414 152.93178223 125.80298828 152.67606445 124.99316406 152.41259766 C117.35455477 149.98644255 109.59485849 148.01357776 101.79443359 146.18041992 C96.40065122 144.85938843 92.39085857 143.43312096 88 140 C88.33 138.68 88.66 137.36 89 136 C97.66220139 135.80213246 105.8150821 135.89718806 114.359375 137.5546875 C117.96483609 138.16270905 121.35311046 138.14026498 125 138 C123.55242079 134.3298451 121.89298796 133.0245944 118.484375 131.1171875 C117.11200684 130.33359863 117.11200684 130.33359863 115.71191406 129.53417969 C114.73448242 128.98665039 113.75705078 128.43912109 112.75 127.875 C100.6520678 120.907625 89.62157949 113.6469616 79.33984375 104.1484375 C74.23835181 99.46426293 69.05772502 95.12682006 63.03515625 91.67578125 C62.34832764 91.28197266 61.66149902 90.88816406 60.95385742 90.48242188 C59.58804284 89.71378024 58.21194389 88.96308246 56.82543945 88.23242188 C54.9296875 87.17578125 54.9296875 87.17578125 52 85 C51.5078125 82.29296875 51.5078125 82.29296875 52 80 C53.74610797 78.25389203 56.06117384 78.74501617 58.4375 78.6875 C62.75379855 78.70268042 65.76381001 79.09298994 69.625 81 C76.88654258 84.39190476 85.17906779 83.30670322 93 83 C92.16339844 82.62230469 91.32679688 82.24460937 90.46484375 81.85546875 C83.45043221 78.53857647 77.0278143 74.88759619 70.75 70.3125 C70.10667725 69.84932373 69.46335449 69.38614746 68.80053711 68.90893555 C65.44193257 66.39731879 63.91927034 64.83854068 62 61 C68.27 60.67 74.54 60.34 81 60 C66.44300333 48.26527819 52.26294221 36.8778359 33.375 33.5625 C23.45223931 31.72795487 16.46420986 27.57585742 9.9609375 19.8515625 C0 5.36653386 0 5.36653386 0 0 Z " fill="#FEFEFE" transform="translate(476,160)"/>
<path d="M0 0 C156.75 0 313.5 0 475 0 C468.53902888 12.92194224 461.1531567 20.17316741 450 29 C444.78415559 33.30756806 440.28078969 37.75603263 436 43 C436.83144531 42.7834375 437.66289062 42.566875 438.51953125 42.34375 C439.60621094 42.0653125 440.69289063 41.786875 441.8125 41.5 C442.89144531 41.2215625 443.97039062 40.943125 445.08203125 40.65625 C448 40 448 40 451 40 C450.22906854 44.44249256 448.20145524 46.17105145 444.84375 49.01171875 C440.54636736 52.0163448 435.90734115 54.27865896 431.23828125 56.64746094 C425.4723103 59.61974242 419.0137492 62.97250161 416 69 C416.84304688 68.97679687 417.68609375 68.95359375 418.5546875 68.9296875 C419.65039062 68.91164063 420.74609375 68.89359375 421.875 68.875 C422.96554687 68.85179687 424.05609375 68.82859375 425.1796875 68.8046875 C428 69 428 69 430 71 C430.125 74.125 430.125 74.125 430 77 C429.29875 77.14695312 428.5975 77.29390625 427.875 77.4453125 C421.18087887 79.02789005 415.87285461 81.00532403 411 86 C409.98308736 87.99145391 408.98357352 89.99187074 408 92 C403.11903719 97.8159078 396.71880401 100.80642804 390.01391602 104.00805664 C384.23674219 106.79005987 379.09518284 110.09961779 374 114 C373.27296875 114.47824219 372.5459375 114.95648438 371.796875 115.44921875 C369.72081325 117.24095031 369.36858274 118.32777512 369 121 C376.67313914 121.32937163 383.26102952 121.06290908 390.5625 118.55859375 C393.43837958 117.89953801 395.20113419 118.09986225 398 119 C400.84876533 122.15673996 402.26543905 124.78599115 402.5 129 C402.24911338 133.27316558 400.71471357 135.65881407 398 139 C397.27103516 139.97646484 397.27103516 139.97646484 396.52734375 140.97265625 C391.14504021 147.78006144 384.75120976 150.98000254 376.5 153.3125 C367.38532052 156.21770432 360.64210105 164.11589418 354.19799805 170.87475586 C351.35468879 173.82149333 348.61582015 176.07024535 345 178 C345.68382061 180.99139791 345.68382061 180.99139791 347.5625 182.1875 C353.38646189 184.12882063 357.67089595 183.42213484 363.0625 180.8125 C366.16805907 179.14795838 368.96485247 177.33937999 371.75 175.1875 C375 173 375 173 378.125 172.3125 C381.44557663 173.10655093 383.0691042 174.38333392 385.0703125 177.15625 C386.77040946 180.52787087 387.08493241 183.37134093 386 187 C381.48273202 192.30778988 375.2933612 195.10457519 369.25878906 198.40869141 C358.93263153 204.14570911 350.2312731 211.31361142 342.13183594 219.88989258 C337.35876319 224.89891276 333.05997989 228.23512489 326.125 229.25 C324.67480469 229.47429687 324.67480469 229.47429687 323.1953125 229.703125 C322.10863281 229.85007812 322.10863281 229.85007812 321 230 C322.63933246 232.34190352 323.59327786 233.5515362 326 235 C334.45221025 236.23760709 342.03500987 234.25770999 349.9375 231.4375 C350.98147949 231.07688477 352.02545898 230.71626953 353.10107422 230.34472656 C362.11141548 227.14447773 370.22297484 223.24790296 378.1484375 217.859375 C382.94997228 214.72851123 387.39777184 214.26637488 393 215 C395.35972884 216.09832907 396.96640459 217.33140889 399 219 C398.73713578 222.47836609 398.23531339 223.7702798 395.69921875 226.24609375 C394.70535156 226.96925781 393.71148437 227.69242188 392.6875 228.4375 C391.72199219 229.15808594 390.75648438 229.87867188 389.76171875 230.62109375 C380.09315423 237.0147335 369.67143804 240.61759049 358.625 243.75 C356.62682274 244.3288659 354.62959716 244.91093396 352.63241577 245.4932251 C350.83794277 246.01451906 349.04134978 246.52849939 347.24462891 247.04199219 C344.13681585 247.95960381 341.06740847 248.95604762 338 250 C339.07480053 253.56952556 339.07480053 253.56952556 341.609375 256.1484375 C344.90322264 257.32173617 348.04949145 257.28950964 351.5 257.25 C352.8096875 257.25515625 354.119375 257.2603125 355.46875 257.265625 C368.20568782 256.69699895 378.63463581 252.61676033 390.1875 247.625 C391.79051637 246.94413587 393.39402981 246.2644408 394.99804688 245.5859375 C401.14107543 242.97953807 407.26681952 240.35069835 413.328125 237.55859375 C417.75813552 235.67819567 421.2725353 235.03435446 426 236 C431.63849187 238.38746953 435.47206001 242.08226547 439 247 C441.99857807 255.99573422 438.93034493 263.01444933 435.0625 271.12109375 C432.39488689 276.35362193 428.92666299 280.658769 425 285 C424.43539063 285.70511719 423.87078125 286.41023438 423.2890625 287.13671875 C416.53806933 295.4566047 408.80228991 299.87576732 398.875 303.5 C390.90142949 306.41459554 384.56306554 309.35521471 380.30548406 317.07080042 C378 320 378 320 375.07945895 320.74519098 C373.93270355 320.74291266 372.78594816 320.74063433 371.6044426 320.73828697 C370.96162197 320.74521004 370.31880134 320.7521331 369.65650129 320.75926596 C367.4929502 320.77520455 365.33205526 320.74819596 363.16864014 320.7215271 C361.60600699 320.72414265 360.04337639 320.72939447 358.48075986 320.7370621 C354.17966684 320.75050798 349.8794666 320.72643938 345.5784874 320.69639373 C340.94320414 320.67053242 336.30797303 320.67924767 331.67263794 320.68380737 C323.63931049 320.68695664 315.60627496 320.66809899 307.57302094 320.63438034 C295.95827218 320.58566046 284.34366487 320.56999602 272.728825 320.56245239 C253.88554285 320.54931393 235.04241636 320.50936616 216.19921875 320.45263672 C197.89258593 320.3975799 179.58599558 320.35516965 161.27929688 320.32958984 C160.13975272 320.32798186 159.00020857 320.32637388 157.82613277 320.32471716 C148.91442119 320.31224095 140.00270867 320.30049929 131.09099579 320.28898978 C87.39385433 320.23236656 43.69710243 320.1116621 0 320 C0 214.4 0 108.8 0 0 Z " fill="#FEFEFE" transform="translate(0,160)"/>
<path d="M0 0 C3.29355586 1.64677793 4.128782 5.27834847 5.625 8.5 C10.43505925 18.42232693 16.21067563 27.1034451 27 31 C29.83756327 31.6884245 32.69825856 32.24706235 35.5625 32.8125 C51.84294527 36.08909932 64.25226602 44.69217801 77 55 C77.59135742 55.47518066 78.18271484 55.95036133 78.79199219 56.43994141 C80.21593804 57.60101136 81.61121305 58.79709684 83 60 C83 60.33 83 60.66 83 61 C76.4 61 69.8 61 63 61 C66.31158101 65.30654977 66.31158101 65.30654977 70.1796875 68.4296875 C70.77257568 68.82945801 71.36546387 69.22922852 71.97631836 69.64111328 C72.6028833 70.0482959 73.22944824 70.45547852 73.875 70.875 C74.5254126 71.30409668 75.1758252 71.73319336 75.84594727 72.17529297 C82.29816996 76.34609683 89.03880664 79.76073899 96 83 C96 83.33 96 83.66 96 84 C75.92251546 84.75984658 75.92251546 84.75984658 68.3203125 80.890625 C63.75704337 79.13906715 58.80836249 79.70257552 54 80 C54 81.65 54 83.3 54 85 C54.85980469 85.44988281 55.71960938 85.89976562 56.60546875 86.36328125 C66.63530514 91.76363234 74.94255169 98.27373493 83.21484375 106.09375 C93.55430003 115.7783079 106.29890013 122.76899248 118.5546875 129.73974609 C119.225 130.12469238 119.8953125 130.50963867 120.5859375 130.90625 C121.1742334 131.23947266 121.7625293 131.57269531 122.36865234 131.91601562 C124.15073311 133.10015788 125.53784451 134.44406679 127 136 C126.67 136.99 126.34 137.98 126 139 C121.30118975 139.18072347 117.11973693 138.89617847 112.5 138 C105.00243686 136.63505902 97.58750975 136.82668125 90 137 C90.25849956 138.96415164 90.25849956 138.96415164 91 141 C99.21211301 144.90811311 108.52799396 146.64604859 117.29101562 148.95117188 C124.18927628 150.80715802 130.57222904 152.8735434 137 156 C137 157.32 137 158.64 137 160 C130.07902753 162.48657694 123.04236835 162.60183226 115.75 163 C107.02149283 163.4824354 98.56083818 164.17534127 90 166 C90 167.32 90 168.64 90 170 C91.34191406 170.03867187 91.34191406 170.03867187 92.7109375 170.078125 C106.87753749 170.74265634 114.53750291 174.50092204 124.390625 184.40234375 C132.03420715 192.01159844 140.00170754 199.00763209 148.63061523 205.47119141 C150.12109392 206.60404782 151.56561951 207.79690276 153 209 C153 209.66 153 210.32 153 211 C142.79543877 213.16075229 136.29722234 212.39637583 127.47900391 206.84594727 C122.73630376 203.96346948 119.56118784 203.4092303 114 204 C111.47256505 204.98657173 111.47256505 204.98657173 109.5 206.5 C108.8296875 206.9640625 108.159375 207.428125 107.46875 207.90625 C106.9840625 208.2671875 106.499375 208.628125 106 209 C106.41991038 213.89895447 108.41025368 215.78095423 112 219 C114.86984293 220.80782429 114.86984293 220.80782429 118.015625 222.34765625 C119.17682861 222.94707031 120.33803223 223.54648437 121.53442383 224.1640625 C122.44534286 224.6286084 122.44534286 224.6286084 123.37466431 225.10253906 C132.486708 229.76688051 141.45751842 234.55377465 149.8125 240.5 C150.45541992 240.95511963 151.09833984 241.41023926 151.76074219 241.87915039 C163.01614659 250.15775682 163.01614659 250.15775682 165.125 256.25 C165 259 165 259 164.0625 260.875 C160.75694489 262.67803006 157.6162807 262.65047902 154 262 C150.54098663 260.3312196 147.49802766 258.1613596 144.375 255.9375 C129.8195263 245.40562869 129.8195263 245.40562869 112.94677734 240.82641602 C111.7293837 240.80618126 111.7293837 240.80618126 110.48739624 240.78553772 C109.61241486 240.77509933 108.73743347 240.76466095 107.8359375 240.75390625 C105.97265193 240.72094634 104.1093708 240.68773508 102.24609375 240.65429688 C99.31692784 240.60706805 96.38777705 240.5626722 93.45849609 240.52319336 C90.62578065 240.48315074 87.79344082 240.43166572 84.9609375 240.37890625 C84.0981015 240.3704921 83.2352655 240.36207794 82.34628296 240.35340881 C73.97887911 240.18574011 66.90796701 238.74580518 59.4375 234.875 C54.1866943 232.38132682 50.76019541 230.86853304 45 232 C42.30894802 234.17574416 40.54467072 235.91065856 39 239 C38.73963378 243.0814649 38.72870696 247.16505085 38.70483398 251.25415039 C38.68788592 253.2666731 38.64405937 255.27891247 38.59960938 257.29101562 C38.51478915 270.47729855 40.87251692 281.21788187 50 291 C50.6084375 291.66386719 51.216875 292.32773437 51.84375 293.01171875 C55.4758417 296.80010948 59.35042687 300.14846068 63.4375 303.4375 C77.16026048 314.48078145 77.16026048 314.48078145 79 320 C75.36107554 321.05646194 72.64756321 321.07147169 69 320 C65.69221583 317.44868352 62.91858656 314.38098408 60.17529297 311.24365234 C56.0745234 306.64322417 52.93709377 304.74122506 47 303 C46.23171875 302.75894531 45.4634375 302.51789063 44.671875 302.26953125 C38.44015412 300.78759763 32.38100683 300.80565461 26 301 C26.66446573 304.65013379 26.66446573 304.65013379 28.0625 308.0625 C29 310 29 310 29 314 C25.13210601 312.6723166 22.65320446 311.0476298 19.6875 308.25 C16.19040026 305.02729707 12.62144318 302.14668865 8.7265625 299.421875 C5.20313211 296.52022645 3.53408068 293.24822341 2 289 C1.15236084 289.00785522 1.15236084 289.00785522 0.28759766 289.01586914 C-2.2665903 289.03662422 -4.82076053 289.0496554 -7.375 289.0625 C-8.26445312 289.07087891 -9.15390625 289.07925781 -10.0703125 289.08789062 C-11.34648437 289.09272461 -11.34648437 289.09272461 -12.6484375 289.09765625 C-13.82672119 289.10551147 -13.82672119 289.10551147 -15.02880859 289.11352539 C-17 289 -17 289 -19 288 C-27.59499783 286.9085717 -32.21345737 289.9371801 -39 295 C-40.52546301 296.22341626 -42.04656674 297.45229512 -43.5625 298.6875 C-51.54404847 305.04423324 -61.45090788 307.75297917 -71.5 308.375 C-80.07651022 309.08576052 -84.65493416 312.41221702 -90.390625 318.58203125 C-92 320 -92 320 -94.9375 320.4375 C-95.618125 320.293125 -96.29875 320.14875 -97 320 C-93.74165089 312.14162862 -88.97335338 307.5749527 -81.1875 304.3125 C-78.27274438 303.18502612 -75.35219858 302.11862976 -72.390625 301.12109375 C-58.66843071 296.24840374 -48.14182883 284.41314488 -41.26953125 271.83203125 C-40.07926036 269.24554818 -39.00079864 266.66446392 -38 264 C-37.63648438 263.1646875 -37.27296875 262.329375 -36.8984375 261.46875 C-35.08935444 256.49770436 -35.41145135 251.70025166 -37.125 246.75 C-40.4101278 241.93181257 -45.0540488 237.75321434 -50.9440918 236.62890625 C-58.06327769 236.40025841 -63.47507669 238.991801 -69.8125 242 C-72.030181 243.01146171 -74.24894691 244.02054781 -76.46875 245.02734375 C-77.56703125 245.52991699 -78.6653125 246.03249023 -79.796875 246.55029297 C-103.58874101 257.31828842 -103.58874101 257.31828842 -115 258 C-115.64485352 258.04092773 -116.28970703 258.08185547 -116.95410156 258.12402344 C-131.41122295 258.93127387 -131.41122295 258.93127387 -137 254 C-137 252.68 -137 251.36 -137 250 C-127.55878184 245.7960425 -118.04221573 242.85917095 -108.06640625 240.21484375 C-96.11209115 236.85996723 -86.5011904 230.89366576 -77 223 C-77.18828772 220.55519921 -77.18828772 220.55519921 -78 218 C-81.93017058 215.1805298 -86.36740841 215.38539415 -91 216 C-94.67224267 217.25498002 -97.84674083 219.25199826 -101.08984375 221.35546875 C-109.22140725 226.54020924 -117.97203812 229.73688125 -127 233 C-128.46566406 233.54914063 -128.46566406 233.54914063 -129.9609375 234.109375 C-136.19774963 236.24886395 -142.44390096 236.88961816 -149 236 C-152.67930728 233.90784488 -153.6704934 232.98851981 -155 229 C-153.85724609 228.90525391 -153.85724609 228.90525391 -152.69140625 228.80859375 C-141.53287172 227.48517205 -136.42702205 222.52401978 -128.8125 214.6875 C-119.91475183 205.55312626 -109.4394187 198.94496576 -98.24145508 192.95458984 C-93.61634901 190.59358553 -93.61634901 190.59358553 -90 187 C-89.4765397 182.36363736 -89.401416 180.10507815 -91.625 176 C-93.83607792 173.78331493 -93.83607792 173.78331493 -96.69921875 173.59765625 C-101.06553195 174.12988141 -103.64579897 175.94659181 -107.1875 178.4375 C-113.05888748 182.45217647 -117.64095229 185.06713121 -125 184 C-127.30851561 182.88705248 -128.97952684 181.61637853 -131 180 C-129.88521643 176.65564928 -129.47357106 176.41411244 -126.6875 174.5625 C-122.77072904 171.76480646 -119.50703348 168.52455084 -116.1875 165.0625 C-108.86865711 157.5554616 -101.56897092 152.47802959 -91.34765625 149.7890625 C-83.51156285 147.15530066 -77.61888874 140.23777749 -74 133 C-73.47799382 126.73592579 -74.07857962 123.90177547 -78 119 C-81.73604505 119.46700563 -85.11407536 120.03232135 -88.75 121.0625 C-93.92459447 122.42209933 -101.09708246 123.45145877 -106 121 C-105.70438601 117.77055657 -105.3481809 116.33871579 -102.98828125 114.04296875 C-94.20203015 107.95031288 -85.12596414 102.36425013 -75.4375 97.8125 C-70.78739897 95.36062855 -67.84909819 92.90036261 -65.6875 88.0625 C-62.96644101 83.12428183 -58.9081401 79.97246723 -53.546875 78.1796875 C-50.67425158 77.52176407 -47.95050129 77 -45 77 C-45.99 73.535 -45.99 73.535 -47 70 C-50.96 69.67 -54.92 69.34 -59 69 C-54.5603873 60.1207746 -45.69228209 56.44834805 -37.20703125 52.05664062 C-28.82647215 47.74316211 -28.82647215 47.74316211 -24 40 C-24.90363281 40.30035156 -25.80726563 40.60070312 -26.73828125 40.91015625 C-27.91777344 41.29042969 -29.09726562 41.67070312 -30.3125 42.0625 C-31.48425781 42.44535156 -32.65601563 42.82820313 -33.86328125 43.22265625 C-37 44 -37 44 -40 43 C-33.51600747 35.0775791 -26.17025913 27.87677371 -17.8125 21.9375 C-9.91426839 16.17130637 -4.66954015 8.47238534 0 0 Z " fill="#028C3F" transform="translate(475,160)"/>
<path d="M0 0 C0.77601563 0.00644531 1.55203125 0.01289063 2.3515625 0.01953125 C4.375 0.1875 4.375 0.1875 6.375 1.1875 C7.80084519 1.24762816 9.22952308 1.24801307 10.65625 1.21484375 C11.49800781 1.20259766 12.33976562 1.19035156 13.20703125 1.17773438 C14.98575855 1.14257651 16.76441294 1.10351345 18.54296875 1.06054688 C19.38472656 1.04958984 20.22648437 1.03863281 21.09375 1.02734375 C21.86654297 1.01050537 22.63933594 0.99366699 23.43554688 0.97631836 C25.375 1.1875 25.375 1.1875 27.375 3.1875 C27.684375 4.198125 27.99375 5.20875 28.3125 6.25 C30.72336256 12.13642077 36.46445375 15.47353159 41.375 19.1875 C43.06309705 20.52007735 44.75065695 21.85333564 46.4375 23.1875 C48.40493536 24.7244477 50.14405229 26.07202614 52.375 27.1875 C51.900625 25.970625 51.42625 24.75375 50.9375 23.5 C49.78465212 20.41845399 48.77312019 17.47199153 48.375 14.1875 C50.07756721 12.48493279 52.16611162 12.93412517 54.5 12.875 C64.65081511 12.99613145 75.23511769 14.77431181 82.58984375 22.2421875 C83.17894531 22.88414062 83.76804687 23.52609375 84.375 24.1875 C85.87366516 25.64720506 87.37365939 27.10554685 88.875 28.5625 C90.06496893 29.74789213 91.23975448 30.9495993 92.375 32.1875 C92.375 32.5175 92.375 32.8475 92.375 33.1875 C39.245 33.1875 -13.885 33.1875 -68.625 33.1875 C-62.04910313 25.51562031 -58.16688175 21.59334552 -48.23071289 20.59277344 C-32.89633307 19.00688743 -22.55107344 13.31350475 -10.66796875 3.703125 C-7.06533371 1.03042444 -4.51538218 -0.08305887 0 0 Z " fill="#FCFDFD" transform="translate(451.625,446.8125)"/>
<path d="M0 0 C0.7421875 2.109375 0.7421875 2.109375 1 4 C-5.98763784 10.3332065 -14.62521106 13.80995756 -24.0625 14.5625 C-27 14 -27 14 -29.3125 11.8125 C-31.84291727 7.59513789 -33 4.97089686 -33 0 C-23.35765362 -3.5276877 -9.30517391 -5.79950374 0 0 Z " fill="#F7FBF9" transform="translate(422,325)"/>
<path d="M0 0 C3.375 2 3.375 2 6 4 C5.89398969 8.34642288 4.73327208 10.73537675 1.875 13.875 C-0.81055876 16.35229094 -1.78688599 16.96194393 -5.5 17.625 C-9.61629527 16.88994727 -12.37196516 16.10426021 -16 14 C-16.96484375 11.65234375 -16.96484375 11.65234375 -17 9 C-15.19921875 6.796875 -15.19921875 6.796875 -12.6875 4.75 C-11.86636719 4.06421875 -11.04523437 3.3784375 -10.19921875 2.671875 C-6.62490373 -0.04536626 -4.49996274 -0.43268873 0 0 Z " fill="#F5FAF7" transform="translate(575,349)"/>
<path d="M0 0 C3 2 3 2 3.625 4.25 C2.64874578 8.54551857 -0.51881956 10.51119227 -4 13 C-7.93021674 14.96510837 -12.71604362 14.47530928 -17 14 C-20.1875 12 -20.1875 12 -22 10 C-21.62425073 7.4202289 -21.18864508 6.1953664 -19.35546875 4.296875 C-13.08933752 -0.17409431 -7.6320683 -1.19179445 0 0 Z " fill="#F8FCFA" transform="translate(549,343)"/>
<path d="M0 0 C3.5625 1.5 3.5625 1.5 6 3 C6.19795384 6.43119989 6.30611966 9.20408888 5.0625 12.4375 C2.2001285 14.60596325 0.02450652 14.54530075 -3.50390625 14.40625 C-7.68363093 13.72598182 -11.28167458 11.96904231 -15 10 C-15.375 7.8125 -15.375 7.8125 -15 5 C-10.56417217 -0.11826288 -6.64189153 -1.13658037 0 0 Z " fill="#F8FCFA" transform="translate(523,265)"/>
<path d="M0 0 C3.52991659 0.0961676 4.51423276 0.31428774 7.5 2.4375 C10.04755439 5.93128888 11.93626093 9.49476622 13.6875 13.4375 C9.18864643 16.07097526 5.89319062 17.46004637 0.6875 16.4375 C-2.88746719 13.19117329 -4.94797517 9.66777129 -6.3125 5.0625 C-6.3125 0.52645486 -3.98630142 0.11389433 0 0 Z " fill="#F8FCFA" transform="translate(410.3125,269.5625)"/>
<path d="M0 0 C-0.28834864 5.91114703 -2.80443381 9.118121 -7 13 C-11.44107257 15.92921808 -14.72565464 16.31646072 -20 16 C-19.12288909 9.53411827 -15.19452001 5.49064272 -10.15625 1.5625 C-6.49867423 -0.74754786 -4.10939036 -1.49432377 0 0 Z " fill="#F4FAF7" transform="translate(456,239)"/>
<path d="M0 0 C2 2 2 2 2.3125 4.9375 C2 8 2 8 0.875 9.75 C-5.0103618 13.67357453 -11.20331059 13.21768756 -18 13 C-17.66302653 10.03765111 -17.4204474 8.42622013 -15.29296875 6.26953125 C-14.25076172 5.54830078 -14.25076172 5.54830078 -13.1875 4.8125 C-12.15689453 4.07966797 -12.15689453 4.07966797 -11.10546875 3.33203125 C-7.27061754 0.90590089 -4.63040927 -0.4874115 0 0 Z " fill="#F4FAF7" transform="translate(479,227)"/>
<path d="M0 0 C3.59692577 0.23979505 5.5189204 0.59693331 8.3125 2.9375 C10.88983399 6.08757487 11.15805582 7.92720266 11.1875 11.9375 C11.20167969 12.81277344 11.21585937 13.68804687 11.23046875 14.58984375 C11 17 11 17 9 20 C6.75 20 6.75 20 4 19 C-0.07368604 13.8676916 -1.06242836 7.40515005 -1 1 C-0.67 0.67 -0.34 0.34 0 0 Z " fill="#F1F8F4" transform="translate(429,357)"/>
<path d="M0 0 C1.31677734 0.00966797 1.31677734 0.00966797 2.66015625 0.01953125 C4.9375 0.1875 4.9375 0.1875 6.9375 1.1875 C6.68716394 6.31938925 4.95082436 9.15963199 1.55859375 12.8203125 C-0.0625 14.1875 -0.0625 14.1875 -2.75 14.9375 C-5.0625 14.1875 -5.0625 14.1875 -6.875 12.125 C-8.31671 8.55866473 -8.49418757 6.0007402 -8.0625 2.1875 C-4.79122414 0.00664943 -3.78873277 -0.06137859 0 0 Z " fill="#F3F9F6" transform="translate(434.0625,265.8125)"/>
<path d="M0 0 C3.6773705 0.20429836 4.80084985 0.77932011 7.3125 3.5625 C9.42529453 7.8663407 9.40112159 10.26676518 9 15 C8.67 15.33 8.34 15.66 8 16 C3.87824339 15.84446201 1.67554991 15.60626274 -1.4375 12.8125 C-3.28133554 9.49359602 -3.55716153 7.74094169 -3 4 C-1.5 1.625 -1.5 1.625 0 0 Z " fill="#F6FBF8" transform="translate(481,307)"/>
<path d="M0 0 C3.375 0.875 3.375 0.875 5.375 2.875 C5.918379 8.85216895 5.918379 8.85216895 4.3125 11.875 C1.10393873 13.53103162 -1.22437145 12.76990225 -4.625 11.875 C-7.125 10.0625 -7.125 10.0625 -8.625 7.875 C-8.625 5.06852496 -7.61176398 3.85616413 -6 1.5625 C-3.625 -0.125 -3.625 -0.125 0 0 Z " fill="#F3F9F6" transform="translate(543.625,290.125)"/>
<path d="M0 0 C4.97093824 0.41153737 9.44508386 0.79600832 14 3 C11.78471141 7.74873033 9.62273142 12.13575315 6 16 C5.34 16 4.68 16 4 16 C3.32586789 14.08594633 2.6609668 12.16863974 2 10.25 C1.62875 9.18265625 1.2575 8.1153125 0.875 7.015625 C0 4 0 4 0 0 Z " fill="#F3F9F6" transform="translate(469,360)"/>
<path d="M0 0 C4.55555556 0.55555556 4.55555556 0.55555556 6 2 C5.875 5.375 5.875 5.375 5 9 C2.31851774 11.30905417 0.71136356 11.95257576 -2.8125 12.1875 C-3.534375 12.125625 -4.25625 12.06375 -5 12 C-5.75 10.375 -5.75 10.375 -6 8 C-4.24107963 4.96737867 -2.47809712 2.47809712 0 0 Z " fill="#EDF7F1" transform="translate(495,259)"/>
<path d="M0 0 C1 1 1 1 1.3125 3.8125 C1 7 1 7 -0.625 9.375 C-3.62360205 11.42667508 -5.43700935 11.39588785 -9 11 C-10 10 -10 10 -10.3125 7.1875 C-10 4 -10 4 -8.375 1.625 C-5.37639795 -0.42667508 -3.56299065 -0.39588785 0 0 Z " fill="#F6FAF8" transform="translate(515,227)"/>
<path d="M0 0 C0.33 1.32 0.66 2.64 1 4 C-1.230238 6.37412432 -2.89404729 7.92639894 -6.23046875 8.1484375 C-10.58833116 7.7645475 -13.07365491 7.43892146 -16 4 C-5.62642369 -1.92482916 -5.62642369 -1.92482916 0 0 Z " fill="#ECF6F1" transform="translate(483,260)"/>
<path d="M0 0 C2 2 2 2 2.1875 4.5625 C2 7 2 7 1 8 C-6.52238806 8.23880597 -6.52238806 8.23880597 -9 7 C-9.1875 4.625 -9.1875 4.625 -9 2 C-5.54754176 -0.30163882 -4.05261287 -0.34490322 0 0 Z " fill="#EBF6F0" transform="translate(496,226)"/>
<path d="M0 0 C5.75 0.75 5.75 0.75 8 3 C8.26991906 5.68839385 8.08737357 8.29141936 8 11 C5.6875 10.8125 5.6875 10.8125 3 10 C0.31551796 6.66753954 -0.36325349 4.23795734 0 0 Z " fill="#F3F9F6" transform="translate(451,364)"/>
<path d="M0 0 C5.03985731 0.44469329 7.37634988 2.71343362 11 6 C10.67 7.32 10.34 8.64 10 10 C6.43949035 9.69481346 4.99964963 8.99971192 2.1875 6.6875 C0 4 0 4 0 0 Z " fill="#EAF5EF" transform="translate(442,305)"/>
<path d="M0 0 C1.134375 0.020625 2.26875 0.04125 3.4375 0.0625 C3.7675 1.0525 4.0975 2.0425 4.4375 3.0625 C1.97843925 6.94024964 -0.17990632 8.72337415 -4.5625 10.0625 C-4.58939216 8.58343108 -4.60884621 7.10422517 -4.625 5.625 C-4.63660156 4.80128906 -4.64820313 3.97757813 -4.66015625 3.12890625 C-4.49001835 -0.47121162 -3.73687179 0.06555915 0 0 Z " fill="#F4FAF7" transform="translate(440.5625,220.9375)"/>
<path d="M0 0 C2.625 0.375 2.625 0.375 5 1 C4.67 3.64 4.34 6.28 4 9 C2.125 9.625 2.125 9.625 0 10 C-2 8 -2 8 -2.25 5 C-2 2 -2 2 0 0 Z " fill="#F5FAF8" transform="translate(466,301)"/>
<path d="M0 0 C3.875 0.875 3.875 0.875 5 2 C5.14115161 4.67058851 5.04247107 7.32432238 5 10 C1.125 9.125 1.125 9.125 0 8 C-0.14115161 5.32941149 -0.04247107 2.67567762 0 0 Z " fill="#EFF8F3" transform="translate(495,315)"/>
</svg>
